<svg id="Layer_1" xmlns="http://www.w3.org/2000/svg" viewBox="0 0 24 24" width="24" height="24"><style>.st0{fill:none;} .st1{fill:#1B1B1B;}</style><g id="icon_x5F_function"><g id="icon_x5F_external_x5F_link_1_"><path class="st0" d="M0 0h24v24H0V0z"/><path class="st1" d="M19 3.2H9c-.8 0-1.5.7-1.5 1.5V6H9V4.7h10v10h-1.2v1.5H19c.8 0 1.5-.7 1.5-1.5v-10c0-.8-.7-1.5-1.5-1.5z"/><path class="st1" d="M15 8.7v10H5v-10h10m0-1.5H5c-.8 0-1.5.7-1.5 1.5v10c0 .8.7 1.5 1.5 1.5h10c.8 0 1.5-.7 1.5-1.5v-10c0-.8-.7-1.5-1.5-1.5z"/></g></g></svg>