<?xml version="1.0" encoding="utf-8"?>
<!-- Generator: Adobe Illustrator 26.2.1, SVG Export Plug-In . SVG Version: 6.00 Build 0)  -->
<svg version="1.1" id="レイヤー_1" xmlns="http://www.w3.org/2000/svg" xmlns:xlink="http://www.w3.org/1999/xlink" x="0px"
	 y="0px" viewBox="0 0 90 40" style="enable-background:new 0 0 90 40;" xml:space="preserve">
<style type="text/css">
	.st0{fill:#333333;}
</style>
<g>
	<path class="st0" d="M13.9,12.8c-0.2-0.1-0.6-0.1-1.2-0.1v5c0.2,0,0.4,0,0.6,0c0.6,0,0.9-0.1,1.1-0.4c0.2-0.3,0.2-1.1,0.2-2.4
		c0-0.7-0.1-1.2-0.2-1.5S14.1,12.8,13.9,12.8z"/>
	<path class="st0" d="M43.8,23.2h2c-0.3-2.5-0.6-5.7-0.9-9.4C44.3,18.1,44,21.2,43.8,23.2z"/>
	<path class="st0" d="M28.4,12.6v5c0.7,0,1.1-0.1,1.4-0.3c0.3-0.2,0.4-0.8,0.4-1.8v-1.2c0-0.7-0.1-1.2-0.4-1.4
		C29.5,12.7,29.1,12.6,28.4,12.6z"/>
	<path class="st0" d="M40,0H0v40h40h50V0H40z M20.5,25.9c0,1.5-0.2,2.6-0.5,3.4s-0.9,1.2-1.7,1.5c-0.8,0.3-2.3,0.4-4.7,0.4H6.9V8.8
		h5.8c1.8,0,3.2,0.1,4.2,0.4c0.9,0.3,1.7,0.9,2.3,1.7c0.6,0.9,0.9,2.3,0.9,4.2c0,1.3-0.2,2.2-0.6,2.7c-0.4,0.5-1.2,0.9-2.4,1.2
		c1.3,0.3,2.3,0.8,2.7,1.5c0.5,0.7,0.7,1.8,0.7,3.2V25.9z M34.7,20.7c0.4,0.5,0.6,0.9,0.7,1.3c0.1,0.4,0.1,1.5,0.1,3.3v5.9h-5.4
		v-7.5c0-1.2-0.1-1.9-0.3-2.2c-0.2-0.3-0.7-0.4-1.5-0.4v10.1h-5.8V8.8h4.1c2.8,0,4.6,0.1,5.6,0.3c1,0.2,1.8,0.8,2.4,1.6
		c0.6,0.9,0.9,2.3,0.9,4.2c0,1.7-0.2,2.9-0.7,3.5c-0.4,0.6-1.3,1-2.6,1.1C33.5,19.8,34.3,20.2,34.7,20.7z M46.3,31.2l-0.3-4h-2.1
		l-0.4,4h-6l3-22.4h8.4l3.3,22.4H46.3z M67.3,31.2h-5.1l-3-10.2v10.2h-4.9V8.8h4.9l3.3,10.1V8.8h4.9V31.2z M83.1,24.5
		c0,2-0.1,3.4-0.3,4c-0.2,0.7-0.5,1.2-1,1.6c-0.5,0.4-1.1,0.7-1.7,0.8s-1.7,0.2-3.1,0.2h-7.4V8.8H74c2.8,0,4.7,0.1,5.7,0.4
		c1,0.3,1.7,0.7,2.3,1.3c0.5,0.6,0.8,1.2,1,2c0.1,0.7,0.2,2.1,0.2,4.3V24.5z"/>
	<path class="st0" d="M76.7,12.8c-0.2-0.1-0.7-0.2-1.3-0.2v14.7c0.8,0,1.4-0.2,1.6-0.5s0.3-1.3,0.3-2.7v-8.7c0-1,0-1.7-0.1-2
		C77.1,13.2,77,13,76.7,12.8z"/>
	<path class="st0" d="M12.7,21.1v6.3c0.8,0,1.3-0.2,1.6-0.4c0.2-0.2,0.3-0.8,0.3-1.7v-2.1c0-1-0.1-1.5-0.3-1.7
		C14.1,21.2,13.6,21.1,12.7,21.1z"/>
</g>
</svg>
