<?xml version="1.0" encoding="utf-8"?>
<!-- Generator: Adobe Illustrator 26.2.1, SVG Export Plug-In . SVG Version: 6.00 Build 0)  -->
<svg version="1.1" id="レイヤー_1" xmlns="http://www.w3.org/2000/svg" xmlns:xlink="http://www.w3.org/1999/xlink" x="0px"
	 y="0px" viewBox="0 0 711.8 81.1" style="enable-background:new 0 0 711.8 81.1;" xml:space="preserve">
<g>
	<path d="M43,3.6c-3.5,0.1-6.7,0.2-9.5,0.3C30.7,3.9,28,4,25.6,4c-2.2,0-5,0-8.2-0.1C14.1,3.8,9.9,3.7,4.6,3.6v2.5h0.6
		c2,0,3.5,0.4,4.3,1.3c0.8,0.8,1.2,2.3,1.2,4.5c0,1.6,0,3.8,0,6.8c0,3,0,5.1,0,6.5v10.3c0,1.3,0,2.9,0,4.8c0,1.9,0,3.3,0,4
		c0,4.6-0.4,7.5-1.1,8.9c-0.7,1.3-2.1,2-4.1,2c-0.4,0-0.7,0-0.9,0s-0.4,0-0.6-0.1v2.5c2.3-0.1,4.3-0.2,6.1-0.2
		c1.8-0.1,3.1-0.1,4-0.1c1.8,0,3.6,0,5.4,0.1s3.7,0.1,5.7,0.2v-2.6h-1.5c-2.5,0-4.1-0.5-4.9-1.4c-0.8-0.9-1.2-3.2-1.2-6.9V31.9h2.7
		H27c4.5,0,7.4,0.4,8.6,1.1c1.2,0.7,1.9,2.2,1.9,4.2v0.6l2.5-0.2c-0.1-1.3-0.1-2.4-0.2-3.5c0-1-0.1-1.9-0.1-2.7c0-1,0-2.2,0.1-3.4
		c0.1-1.2,0.2-2.8,0.4-4.7l-2.4-0.2c-0.1,1.8-0.8,3.1-1.9,3.8c-1.2,0.7-3.7,1-7.4,1c-0.8,0-2.2,0-4.3,0c-2.1,0-3.8,0-5.3,0h-1.2
		c0-0.5,0.1-3,0.2-7.6c0.1-4.6,0.2-8.7,0.2-12.5h0.2c4.2-0.1,7.2-0.2,9.2-0.2c5.6,0,9.2,0.6,10.8,1.7c1.6,1.1,2.5,3.3,2.7,6.5
		l2.6-0.3c-0.2-2.4-0.4-4.6-0.5-6.6C43.1,7.2,43,5.3,43,3.6z"/>
	<path d="M62.7,36.5c1.2-0.1,2.5-0.1,4-0.1h18.5c-0.4-5.4-1.9-9.6-4.5-12.6c-2.6-3-6.2-4.5-10.7-4.5c-4.8,0-8.9,2-12.2,5.9
		s-5,8.9-5,14.7c0,5.5,1.6,10,4.8,13.5c3.2,3.5,7.2,5.2,12.1,5.2c2.5,0,5.1-0.5,7.7-1.6c2.6-1.1,5.2-2.7,7.8-4.8l-1.5-2.4
		c-2,1.3-3.9,2.3-5.7,2.9c-1.8,0.6-3.6,0.9-5.4,0.9c-4.2,0-7.4-1.3-9.7-4c-2.3-2.7-3.4-6.5-3.4-11.5v-1.4
		C60.4,36.6,61.5,36.6,62.7,36.5z M63,25.8c1.7-1.9,3.8-2.9,6.2-2.9c2.1,0,4,0.8,5.5,2.5c1.5,1.7,2.7,4,3.4,7.1
		c-1.7,0.4-3.9,0.7-6.8,0.9c-2.9,0.2-6.8,0.3-11.8,0.3C60.1,30.3,61.3,27.7,63,25.8z"/>
	<path d="M127.5,53.4c-0.6,0.2-1.2,0.4-1.6,0.4c-0.9,0-1.6-0.3-1.9-0.9c-0.4-0.6-0.5-1.7-0.5-3.3c0-2.2,0.1-5.3,0.4-9.5
		c0.2-4.2,0.4-7.3,0.4-9.3c0-3.7-0.9-6.6-2.7-8.5s-4.5-2.9-8-2.9c-3.6,0-7.2,1.2-10.6,3.7c-3.4,2.5-5.1,4.7-5.1,6.8
		c0,0.6,0.2,1.1,0.6,1.4c0.4,0.3,1.1,0.5,2,0.5c1.1,0,2-0.3,2.7-0.8s1.1-1.2,1.1-1.9c0-0.1,0-0.3,0-0.5c0-0.2,0-0.4,0-0.5
		c0-1.4,0.6-2.4,1.9-3.2s3-1.2,5.1-1.2c2.2,0,3.9,0.6,5,1.9s1.6,3.2,1.6,5.8c0,0.5,0,1.6-0.1,3.3c0,0.8,0,1.4,0,1.9
		c-1.3,0.3-3.2,0.8-5.6,1.3c-10.2,2.4-15.2,6-15.2,10.7c0,2.8,0.9,5.1,2.6,7c1.7,1.9,3.8,2.9,6.4,2.9c1.4,0,3.1-0.4,4.9-1.2
		c1.8-0.8,4.1-2.1,6.8-4c0.1,1.9,0.5,3.3,1.3,4.3c0.8,0.9,2,1.4,3.6,1.4c1,0,2.2-0.4,3.8-1.1c1.6-0.7,3.3-1.8,5.2-3.2l-1.1-2.4
		C129.1,52.7,128.1,53.1,127.5,53.4z M117.3,50c-1.8,1.2-3.5,2.1-4.8,2.6c-1.4,0.6-2.6,0.8-3.7,0.8c-1.7,0-3.1-0.5-4.2-1.6
		c-1.1-1-1.6-2.4-1.6-4.1c0-3.1,4.1-5.7,12.3-7.9c1-0.3,1.7-0.4,2.2-0.6L117.3,50z"/>
	<path d="M159.2,53.5c-1,0.4-1.9,0.5-2.8,0.5c-2,0-3.4-0.9-4.2-2.6c-0.8-1.7-1.2-5.4-1.2-11.1c0-1.5,0-3.4,0.1-5.7
		c0.1-2.3,0.2-5.6,0.3-10h1.8c1.4,0,2.8,0,4.3,0.1c1.4,0,2.9,0.1,4.6,0.2l0.9-4.1c-1.5,0.1-3,0.1-4.5,0.2c-1.5,0-3,0.1-4.4,0.1h-2.7
		c0-1.1,0.1-2.1,0.2-3.2s0.2-2.3,0.4-3.7l-2.5-0.8c-0.8,2.6-1.9,4.6-3.6,6.1c-1.6,1.5-3.7,2.4-6.1,2.7v2.7c0.8,0,2.2,0,4.3-0.1
		c0.4,0,0.8,0,1,0c0,4.1-0.1,8.7-0.2,13.6c-0.1,5-0.2,7.8-0.2,8.6c0,4.1,0.6,7.1,1.9,8.9c1.2,1.9,3.2,2.8,5.9,2.8
		c1.5,0,3.2-0.4,5.1-1.1c2-0.7,4.2-1.8,6.6-3.3l-1.2-2.5C161.4,52.6,160.2,53.1,159.2,53.5z"/>
	<path d="M212.4,53.4c-0.3,0.1-0.6,0.1-0.9,0.1c-1.1,0-1.9-0.4-2.3-1.1c-0.4-0.7-0.6-2.3-0.6-4.6c0-0.5,0-1.5,0-3.1
		c0-1.6,0-2.8,0-3.9c0-2.5,0-5.5,0.1-8.9c0.1-3.4,0.2-7.2,0.3-11.5c-2,0.5-4,0.9-6.1,1.2c-2.1,0.3-4.2,0.6-6.3,0.7l0.2,2.4
		c0.3,0,0.6,0,0.9-0.1c0.3,0,0.6,0,0.8,0c1.5,0,2.5,0.4,3.1,1.2c0.5,0.8,0.8,2.8,0.8,6v2.6c0,1.2,0,3-0.1,5.6c0,2.5-0.1,5.7-0.2,9.6
		c-2.1,1.3-4,2.3-5.6,3c-1.6,0.7-3.1,1-4.5,1c-2.7,0-4.6-0.9-5.7-2.7c-1.1-1.8-1.7-5.4-1.7-10.8c0-1.4,0.1-4,0.2-7.7
		c0.1-3.7,0.2-8.1,0.4-13c-2.1,0.6-4.1,1.1-6,1.6c-1.9,0.4-3.8,0.8-5.6,1.1l0.3,2.5c0.4-0.1,0.8-0.1,1.2-0.2
		c0.4-0.1,0.8-0.1,1.1-0.1c1,0,1.7,0.4,2,1.1c0.4,0.7,0.5,2.1,0.5,4.3c0,0.4,0,1.2,0,2.3c0,1.1,0,2,0,2.7l-0.1,4.2
		c0,0.7,0,1.6,0,2.8c-0.1,2.9-0.1,4.8-0.1,5.7c0,3.6,1,6.3,2.9,8.3c1.9,2,4.6,3,8.1,3c1.7,0,3.6-0.5,5.6-1.4c2.1-1,4.4-2.5,7.2-4.5
		l0.2,5.6l11.5-2.9l-0.3-2.3C213.2,53.2,212.8,53.3,212.4,53.4z"/>
	<path d="M247.9,19.5c-1.8,0-3.6,0.8-5.4,2.4c-1.7,1.6-3.6,4.2-5.7,7.8c0.1-2,0.1-3.8,0.2-5.6c0.1-1.8,0.2-3.5,0.4-5.2
		c-2,0.8-4,1.5-5.9,2.1c-1.9,0.6-3.7,1.1-5.5,1.5l0.5,2.3c0.5-0.1,0.9-0.1,1.1-0.1c0.2,0,0.4,0,0.6,0c1,0,1.7,0.4,2.1,1.2
		c0.4,0.8,0.6,2.5,0.6,5.3v12.3v4c0,3.2-0.3,5.3-1,6.2c-0.7,0.9-1.9,1.3-3.7,1.3h-0.9v2.6c1.7-0.2,3.3-0.3,4.9-0.3
		c1.6-0.1,3.1-0.1,4.5-0.1c1.1,0,2.4,0,3.9,0.1c1.5,0.1,3.3,0.2,5.3,0.3v-2.6h-1.1c-1.8,0-3.1-0.2-3.8-0.7c-0.7-0.5-1.2-1.4-1.5-2.6
		c-0.1-0.7-0.2-2.3-0.3-4.8s-0.1-5.8-0.1-9.8v-4.2c1.4-2.4,2.8-4.2,4.1-5.4c1.3-1.1,2.6-1.7,3.9-1.7c0.7,0,1.5,0.2,2.4,0.7
		s1.6,0.7,2.1,0.7c0.7,0,1.4-0.3,1.9-1c0.5-0.7,0.8-1.5,0.8-2.4c0-1.3-0.4-2.4-1.2-3.1C250.4,19.9,249.3,19.5,247.9,19.5z"/>
	<path d="M272.5,36.5c1.2-0.1,2.5-0.1,4-0.1h18.5c-0.4-5.4-1.9-9.6-4.5-12.6c-2.6-3-6.2-4.5-10.7-4.5c-4.8,0-8.9,2-12.2,5.9
		s-5,8.9-5,14.7c0,5.5,1.6,10,4.8,13.5c3.2,3.5,7.2,5.2,12.1,5.2c2.5,0,5.1-0.5,7.7-1.6c2.6-1.1,5.2-2.7,7.8-4.8l-1.5-2.4
		c-2,1.3-3.9,2.3-5.7,2.9c-1.8,0.6-3.6,0.9-5.4,0.9c-4.2,0-7.4-1.3-9.7-4c-2.3-2.7-3.4-6.5-3.4-11.5v-1.4
		C270.1,36.6,271.3,36.6,272.5,36.5z M272.7,25.8c1.7-1.9,3.8-2.9,6.2-2.9c2.1,0,4,0.8,5.5,2.5c1.5,1.7,2.7,4,3.4,7.1
		c-1.7,0.4-3.9,0.7-6.8,0.9c-2.9,0.2-6.8,0.3-11.8,0.3C269.9,30.3,271,27.7,272.7,25.8z"/>
	<path d="M342.5,7.6c-3.3-2.7-7.7-4.1-13.2-4.1c-0.8,0-2.4,0.1-5,0.2c-2.6,0.1-4.8,0.2-6.7,0.2c-1.7,0-3.3,0-5.1-0.1
		c-1.7-0.1-3.4-0.1-5.1-0.3v2.6h0.3c2.1,0,3.5,0.4,4.3,1.2c0.8,0.8,1.2,2.3,1.2,4.5v23.7c0,1.2,0,2.7,0,4.6c0,1.9,0,3.2,0,3.9
		c0,4.7-0.4,7.8-1.1,9.2c-0.7,1.4-2.1,2.1-4.1,2.1c-0.4,0-0.7,0-0.9,0s-0.4,0-0.6-0.1v2.5c2.2-0.1,4.1-0.2,5.8-0.2s3-0.1,3.9-0.1
		c1.8,0,3.7,0,5.5,0.1c1.9,0.1,3.7,0.1,5.6,0.2l0-2.5c-0.1,0-0.1,0-0.2-0.1c-0.1,0-0.2,0-0.3,0c-0.1,0-0.2,0-0.4,0
		c-0.2,0-0.3,0-0.4,0c-2.4,0-4-0.5-4.8-1.5s-1.2-3.4-1.2-7.3V34.9c1.5,0.2,2.9,0.3,4,0.3c1.1,0.1,2,0.1,2.7,0.1
		c6.6,0,11.7-1.5,15.3-4.4c3.6-3,5.4-7.1,5.4-12.4C347.5,14,345.8,10.4,342.5,7.6z M336.3,28.7c-2.5,2.1-6.1,3.2-10.8,3.2
		c-0.8,0-1.7,0-2.5-0.1c-0.9-0.1-1.8-0.2-2.9-0.3c0-5.3,0-9.6,0-13.1c0-3.5,0.1-6.9,0.2-10.3c1-0.2,2-0.3,3-0.4
		c1-0.1,2.1-0.1,3.2-0.1c4.1,0,7.4,1.1,9.8,3.3c2.4,2.2,3.6,5.1,3.6,8.7C340,23.5,338.7,26.6,336.3,28.7z"/>
	<path d="M386.3,53.4c-0.6,0.2-1.2,0.4-1.6,0.4c-0.9,0-1.6-0.3-1.9-0.9c-0.4-0.6-0.5-1.7-0.5-3.3c0-2.2,0.1-5.3,0.4-9.5
		c0.2-4.2,0.4-7.3,0.4-9.3c0-3.7-0.9-6.6-2.7-8.5s-4.5-2.9-8-2.9c-3.6,0-7.2,1.2-10.6,3.7s-5.1,4.7-5.1,6.8c0,0.6,0.2,1.1,0.6,1.4
		c0.4,0.3,1.1,0.5,2,0.5c1.1,0,2-0.3,2.7-0.8s1.1-1.2,1.1-1.9c0-0.1,0-0.3,0-0.5c0-0.2,0-0.4,0-0.5c0-1.4,0.6-2.4,1.9-3.2
		c1.2-0.8,3-1.2,5.1-1.2c2.2,0,3.9,0.6,5,1.9c1.1,1.2,1.6,3.2,1.6,5.8c0,0.5,0,1.6-0.1,3.3c0,0.8,0,1.4,0,1.9
		c-1.3,0.3-3.2,0.8-5.6,1.3c-10.2,2.4-15.2,6-15.2,10.7c0,2.8,0.9,5.1,2.6,7c1.7,1.9,3.8,2.9,6.4,2.9c1.4,0,3.1-0.4,4.9-1.2
		c1.8-0.8,4.1-2.1,6.8-4c0.1,1.9,0.5,3.3,1.3,4.3c0.8,0.9,2,1.4,3.6,1.4c1,0,2.2-0.4,3.8-1.1c1.6-0.7,3.3-1.8,5.2-3.2l-1.1-2.4
		C387.9,52.7,386.9,53.1,386.3,53.4z M376.1,50c-1.8,1.2-3.5,2.1-4.8,2.6c-1.4,0.6-2.6,0.8-3.7,0.8c-1.7,0-3.1-0.5-4.2-1.6
		c-1.1-1-1.6-2.4-1.6-4.1c0-3.1,4.1-5.7,12.3-7.9c1-0.3,1.7-0.4,2.2-0.6L376.1,50z"/>
	<path d="M424.4,22c-1.4-0.9-2.8-1.5-4.2-1.9c-1.4-0.4-2.9-0.6-4.5-0.6c-4.3,0-8,1.3-10.8,4c-2.9,2.7-4.3,6-4.3,9.9
		c0,2.5,0.7,4.7,2.2,6.6c1.4,1.9,3.4,3.2,6,4c-1.3,0.8-2.5,1.5-3.6,2.3c-1.1,0.8-2.1,1.6-3,2.4c0.5,1.3,1.1,2.5,1.8,3.6
		c0.7,1.1,1.7,2.1,2.8,3.2c-2.7,2.2-4.7,4.2-5.8,5.8c-1.1,1.7-1.6,3.3-1.6,5.1c0,3,1.3,5.5,4,7.5s5.9,3.1,9.8,3.1
		c2.6,0,5.3-0.5,7.9-1.4c2.7-1,5-2.3,7.1-4c2-1.7,3.5-3.5,4.6-5.5c1.1-2,1.6-4,1.6-6c0-3.1-1-5.3-3-6.7c-2-1.4-5.3-2.1-9.9-2.1
		c-1.1,0-3.4,0-7,0.1c-1.5,0-2.6,0-3.4,0c-0.7-0.5-1.2-1.1-1.7-1.7c-0.5-0.6-0.9-1.2-1.3-1.9c0.5-0.5,1.1-1,1.7-1.5
		c0.6-0.5,1.2-1,1.9-1.4c0.3,0,0.9,0.1,1.7,0.1c0.8,0.1,1.4,0.1,1.8,0.1c4.1,0,7.6-1.2,10.5-3.7c2.8-2.4,4.3-5.4,4.3-8.8
		c0-1.6-0.3-3-0.9-4.3c-0.6-1.3-1.5-2.4-2.7-3.3c1.7,0,3.3,0,4.6,0.1c1.3,0.1,2.5,0.2,3.7,0.3l0.2-3.8c-1.7,0.1-3.5,0.2-5.2,0.2
		C427.8,22,426.1,22,424.4,22z M408.5,57.1h5.7c0.9,0,2,0,3.3,0c1.3,0,2.1,0,2.5,0c3.7,0,6.1,0.4,7.4,1.2c1.3,0.8,1.9,2.3,1.9,4.3
		c0,2.5-1.3,4.7-4,6.8s-5.8,3-9.4,3c-3.2,0-5.8-0.8-7.9-2.4c-2.1-1.6-3.2-3.6-3.2-5.9c0-1,0.3-2.1,0.9-3.3S407.3,58.4,408.5,57.1z
		 M421.4,39.8c-1.5,1.7-3.6,2.5-6.2,2.5c-2.6,0-4.7-0.9-6.1-2.8c-1.5-1.9-2.2-4.4-2.2-7.8c0-3,0.7-5.4,2.2-7
		c1.5-1.7,3.6-2.5,6.3-2.5c2.6,0,4.7,0.9,6.1,2.8c1.4,1.8,2.2,4.5,2.2,7.9C423.7,35.8,422.9,38.1,421.4,39.8z"/>
	<path d="M455.2,36.5c1.2-0.1,2.5-0.1,4-0.1h18.5c-0.4-5.4-1.9-9.6-4.5-12.6c-2.6-3-6.2-4.5-10.7-4.5c-4.8,0-8.9,2-12.2,5.9
		c-3.3,4-5,8.9-5,14.7c0,5.5,1.6,10,4.8,13.5c3.2,3.5,7.2,5.2,12.1,5.2c2.5,0,5.1-0.5,7.7-1.6c2.6-1.1,5.2-2.7,7.8-4.8l-1.5-2.4
		c-2,1.3-3.9,2.3-5.7,2.9c-1.8,0.6-3.6,0.9-5.4,0.9c-4.2,0-7.4-1.3-9.7-4c-2.3-2.7-3.4-6.5-3.4-11.5v-1.4
		C452.9,36.6,454,36.6,455.2,36.5z M455.4,25.8c1.7-1.9,3.8-2.9,6.2-2.9c2.1,0,4,0.8,5.5,2.5c1.5,1.7,2.7,4,3.4,7.1
		c-1.7,0.4-3.9,0.7-6.8,0.9c-2.9,0.2-6.8,0.3-11.8,0.3C452.6,30.3,453.7,27.7,455.4,25.8z"/>
	<path d="M538.1,3.9c-1.5,0-4-0.1-7.6-0.3c-0.6,0-1.1,0-1.4,0v2.6h1.2c1.7,0,3,0.2,3.8,0.7c0.8,0.5,1.3,1.3,1.6,2.4
		c0.3,1,0.5,8.2,0.7,21.5c0.1,6.3,0.2,11.4,0.2,15.2L505.4,9.1c-0.9-1.1-1.6-2-2.2-2.9c-0.6-0.9-1-1.7-1.4-2.6
		c-1.3,0.1-2.4,0.2-3.5,0.2c-1.1,0.1-2,0.1-2.8,0.1c-1.1,0-2.2,0-3.3-0.1c-1.1-0.1-2.3-0.1-3.5-0.2v2.6h1c2.1,0,3.6,0.4,4.4,1.2
		c0.8,0.8,1.2,2.3,1.2,4.5c0,2.6,0,5,0,7.1c0,2.1,0,4.2-0.1,6.3l-0.2,10.1c0,1.3,0,3.2,0,5.6c-0.1,9.4-1.8,14-5.1,14
		c-0.3,0-0.5,0-0.7,0c-0.2,0-0.4,0-0.5,0v2.6c1.7-0.1,3.2-0.2,4.7-0.2c1.5-0.1,2.9-0.1,4.1-0.1c1.3,0,3.7,0.1,7.2,0.2
		c0.7,0,1.3,0.1,1.7,0.1v-2.6h-1.1c-1.7,0-2.9-0.2-3.7-0.7c-0.8-0.5-1.3-1.3-1.6-2.4c-0.4-1.4-0.6-13.8-0.8-37.5v-0.9l32.5,38.2
		l0.4,0.5c2.6,3,4.1,5,4.6,6.1h4.2c-0.2-1-0.3-2.4-0.4-4.1c-0.1-1.7-0.1-4.1-0.1-7.1c0-2.7,0-4.9,0-6.5c0-1.6,0-3.1,0.1-4.6
		l0.2-10.1c0-1.3,0-3.2,0-5.6c0-9.4,1.8-14.1,5.1-14.1c0.3,0,0.5,0,0.7,0c0.2,0,0.3,0,0.5,0.1l0-2.6c-0.3,0-0.7,0-1.2,0
		C542.2,3.8,539.6,3.9,538.1,3.9z"/>
	<path d="M588.8,53.4c-0.6,0.2-1.2,0.4-1.6,0.4c-0.9,0-1.6-0.3-1.9-0.9c-0.4-0.6-0.5-1.7-0.5-3.3c0-2.2,0.1-5.3,0.4-9.5
		c0.2-4.2,0.4-7.3,0.4-9.3c0-3.7-0.9-6.6-2.7-8.5s-4.5-2.9-8-2.9c-3.6,0-7.2,1.2-10.6,3.7s-5.1,4.7-5.1,6.8c0,0.6,0.2,1.1,0.6,1.4
		c0.4,0.3,1.1,0.5,2,0.5c1.1,0,2-0.3,2.7-0.8s1.1-1.2,1.1-1.9c0-0.1,0-0.3,0-0.5c0-0.2,0-0.4,0-0.5c0-1.4,0.6-2.4,1.9-3.2
		c1.2-0.8,3-1.2,5.1-1.2c2.2,0,3.9,0.6,5,1.9c1.1,1.2,1.6,3.2,1.6,5.8c0,0.5,0,1.6-0.1,3.3c0,0.8,0,1.4,0,1.9
		c-1.3,0.3-3.2,0.8-5.6,1.3c-10.2,2.4-15.2,6-15.2,10.7c0,2.8,0.9,5.1,2.6,7c1.7,1.9,3.8,2.9,6.4,2.9c1.4,0,3.1-0.4,4.9-1.2
		c1.8-0.8,4.1-2.1,6.8-4c0.1,1.9,0.5,3.3,1.3,4.3c0.8,0.9,2,1.4,3.6,1.4c1,0,2.2-0.4,3.8-1.1c1.6-0.7,3.3-1.8,5.2-3.2l-1.1-2.4
		C590.4,52.7,589.4,53.1,588.8,53.4z M578.6,50c-1.8,1.2-3.5,2.1-4.8,2.6c-1.4,0.6-2.6,0.8-3.7,0.8c-1.7,0-3.1-0.5-4.2-1.6
		c-1.1-1-1.6-2.4-1.6-4.1c0-3.1,4.1-5.7,12.3-7.9c1-0.3,1.7-0.4,2.2-0.6L578.6,50z"/>
	<path d="M660.4,54.1c-0.6-0.6-0.8-1.8-0.8-3.6c0,0,0-0.1,0-0.2c0.1-1,0.1-2.2,0.1-3.4l0.2-12.4v-0.8c0-5-0.8-8.7-2.5-10.9
		s-4.4-3.4-8-3.4c-1.7,0-3.6,0.5-5.8,1.4c-2.1,0.9-4.9,2.5-8.3,4.7c-1.1-2.1-2.3-3.7-3.8-4.7c-1.5-1-3.3-1.5-5.5-1.5
		c-1.8,0-3.6,0.4-5.5,1.1c-1.9,0.7-4.6,2.2-8,4.4c0-1,0.1-2,0.2-2.9c0.1-1,0.2-2,0.3-3c-1.9,0.7-3.7,1.4-5.6,2s-3.8,1.2-5.6,1.7
		l0.5,2.3c0.4-0.1,0.7-0.2,1-0.2c0.3,0,0.6-0.1,0.8-0.1c1,0,1.7,0.4,2.1,1.2c0.4,0.8,0.6,2.4,0.6,4.9v3.7l-0.1,9.3
		c0,0.5,0,1.2,0,2.1c0,6.1-1.6,9.2-4.8,9.2h-0.7l0,2.6c1.5-0.1,3-0.2,4.3-0.3c1.4-0.1,2.6-0.1,3.7-0.1c1.3,0,2.7,0,4.1,0.1
		c1.5,0.1,3,0.2,4.5,0.3l0-2.6c-0.2,0-0.4,0-0.7,0s-0.5,0-0.6,0c-1.7,0-2.8-0.4-3.3-1.1c-0.5-0.8-0.8-3.1-0.8-6.9
		c0-2.5,0-5.2,0.1-8.2c0.1-3,0.2-6.6,0.3-10.7c2.3-1.3,4.3-2.3,6-2.9c1.7-0.6,3.1-0.9,4.3-0.9c2.4,0,4.2,0.7,5.4,2.1
		c1.1,1.4,1.7,3.7,1.7,6.9c0,5.3,0,9.6-0.1,13c-0.1,3.4-0.2,5.5-0.4,6.3c-0.2,1.1-0.6,1.7-1.1,2c-0.5,0.3-1.7,0.4-3.4,0.4l0,2.6
		c1.4-0.1,2.8-0.2,4-0.3c1.3-0.1,2.4-0.1,3.4-0.1c1,0,2.1,0,3.4,0.1c1.3,0.1,3,0.1,5,0.2v-2.6h-0.5c-1.8,0-2.9-0.3-3.5-0.8
		c-0.6-0.5-0.9-1.9-0.9-4.2v-3.1l0.3-18.7c2.4-1.4,4.5-2.4,6.1-3c1.6-0.6,3.1-0.9,4.2-0.9c2.4,0,4.3,0.8,5.4,2.3
		c1.2,1.5,1.8,3.9,1.8,7.1c0,0.6,0,1.7,0,3.1c0,1.5,0,2.7,0,3.6v5.5c0,4-0.3,6.6-0.8,7.6c-0.5,1-1.6,1.6-3.2,1.6c-0.4,0-0.7,0-0.9,0
		c-0.2,0-0.4,0-0.6-0.1v2.6c2.2-0.2,3.9-0.3,5.1-0.3c1.2,0,2.2-0.1,3-0.1c0.8,0,1.7,0,3,0.1c1.2,0.1,3,0.2,5.5,0.3v-2.6h-0.9
		C662.1,54.9,661,54.6,660.4,54.1z"/>
	<path d="M701,52.7c-1.8,0.6-3.6,0.9-5.4,0.9c-4.2,0-7.4-1.3-9.7-4c-2.3-2.7-3.4-6.5-3.4-11.5v-1.4c1-0.1,2.2-0.2,3.4-0.2
		c1.2-0.1,2.5-0.1,4-0.1h18.5c-0.4-5.4-1.9-9.6-4.5-12.6c-2.6-3-6.2-4.5-10.7-4.5c-4.8,0-8.9,2-12.2,5.9c-3.3,4-5,8.9-5,14.7
		c0,5.5,1.6,10,4.8,13.5c3.2,3.5,7.2,5.2,12.1,5.2c2.5,0,5.1-0.5,7.7-1.6c2.6-1.1,5.2-2.7,7.8-4.8l-1.5-2.4
		C704.7,51.1,702.8,52.1,701,52.7z M686.1,25.8c1.7-1.9,3.8-2.9,6.2-2.9c2.1,0,4,0.8,5.5,2.5c1.5,1.7,2.7,4,3.4,7.1
		c-1.7,0.4-3.9,0.7-6.8,0.9c-2.9,0.2-6.8,0.3-11.8,0.3C683.2,30.3,684.4,27.7,686.1,25.8z"/>
</g>
</svg>
