<svg xmlns="http://www.w3.org/2000/svg" viewBox="0 0 20 20" width="20" height="20"><g><g fill-rule="evenodd" clip-rule="evenodd"><path d="M20 10c0-5.523-4.477-10-10-10S0 4.477 0 10c0 4.991 3.657 9.128 8.438 9.878V12.89h-2.54V10h2.539V7.797c0-2.507 1.493-3.891 3.778-3.891 1.094 0 2.238.195 2.238.195v2.461h-1.261c-1.243 0-1.63.771-1.63 1.562V10h2.774l-.444 2.891h-2.33v6.988C16.344 19.128 20 14.991 20 10" fill="#1877f2"/><path d="M13.893 12.891L14.336 10h-2.773V8.124c0-.791.387-1.562 1.629-1.562h1.261v-2.46s-1.144-.195-2.238-.195c-2.285 0-3.778 1.384-3.778 3.89V10H5.899v2.891h2.539v6.988a10.058 10.058 0 0 0 3.124-.001V12.89h2.331z" fill="#fff"/></g></g></svg>