<svg xmlns="http://www.w3.org/2000/svg" viewBox="0 0 20 20" width="20" height="20"><g><g fill-rule="evenodd" clip-rule="evenodd"><path d="M4.335 0h11.33A4.335 4.335 0 0 1 20 4.335v11.33A4.335 4.335 0 0 1 15.665 20H4.335A4.335 4.335 0 0 1 0 15.665V4.335A4.335 4.335 0 0 1 4.335 0" fill="#00b900"/><path d="M17.25 9.12c0-3.26-3.25-5.91-7.285-5.91s-7.28 2.649-7.28 5.91c0 2.92 2.59 5.37 6.09 5.83.24.05.56.155.64.36.059.216.067.441.025.66l-.105.619c-.02.121-.145.721.63.395.775-.325 4.195-2.484 5.725-4.229a5.249 5.249 0 0 0 1.56-3.635" fill="#fff"/><path d="M8.5 7.545c.078.003.14.067.14.145v3.17a.14.14 0 0 1-.14.14H8a.14.14 0 0 1-.14-.14V7.69c0-.078.062-.142.14-.145h.5m3.5 0h-.5a.145.145 0 0 0-.145.145v1.885L9.9 7.61h-.63a.145.145 0 0 0-.145.145v3.17c0 .078.062.14.14.14h.505a.14.14 0 0 0 .14-.14V9l1.455 1.965a.09.09 0 0 0 .04.035H12a.14.14 0 0 0 .14-.14V7.69a.145.145 0 0 0-.14-.145M7.255 10.21H5.87v-2.5a.145.145 0 0 0-.145-.145h-.5a.145.145 0 0 0-.14.145v3.17c0 .037.014.073.04.1a.159.159 0 0 0 .095.035h2.04a.14.14 0 0 0 .145-.135v-.505a.14.14 0 0 0-.14-.14H7.26m7.565-1.895a.14.14 0 0 0 .14-.14v-.5a.14.14 0 0 0-.135-.145h-2.045a.14.14 0 0 0-.1.04.14.14 0 0 0-.04.099v3.171a.14.14 0 0 0 .04.099.14.14 0 0 0 .1.04h2.04a.135.135 0 0 0 .14-.13v-.509a.134.134 0 0 0-.129-.14h-1.4V9.67h1.39a.135.135 0 0 0 .14-.13V9a.14.14 0 0 0-.135-.145H13.436V8.34h1.389z" fill="#00b900"/></g></g></svg>