<svg xmlns="http://www.w3.org/2000/svg" viewBox="0 0 20 20" width="20" height="20"><g><g fill-rule="evenodd" clip-rule="evenodd"><path d="M2.5 0h15A2.5 2.5 0 0 1 20 2.5v15a2.5 2.5 0 0 1-2.5 2.5h-15A2.5 2.5 0 0 1 0 17.5v-15A2.5 2.5 0 0 1 2.5 0" fill="#1da1f2"/><path d="M7.68 15.08A7.25 7.25 0 0 0 15 7.901V7.45a5.286 5.286 0 0 0 1.28-1.325c-.469.205-.966.34-1.475.4a2.564 2.564 0 0 0 1.13-1.415 5.22 5.22 0 0 1-1.63.62 2.57 2.57 0 0 0-4.37 2.34A7.279 7.279 0 0 1 4.62 5.39a2.575 2.575 0 0 0 .795 3.425A2.62 2.62 0 0 1 4.25 8.5v.03a2.565 2.565 0 0 0 2.06 2.5c-.22.061-.447.091-.675.09a2.62 2.62 0 0 1-.5-.045 2.57 2.57 0 0 0 2.395 1.78 5.125 5.125 0 0 1-3.185 1.1c-.205 0-.41 0-.61-.035a7.273 7.273 0 0 0 3.93 1.149" fill="#fff"/></g></g></svg>